<?xml version="1.0" encoding="utf-8"?>
<?xml-stylesheet type="text/xsl" href="rss1.xsl"?>
<rss version="2.0" xmlns:atom="http://www.w3.org/2005/Atom" xmlns:content="http://purl.org/rss/1.0/modules/content/" xmlns:dc="http://purl.org/dc/elements/1.1/" xmlns:media="http://search.yahoo.com/mrss/">
<channel>
 <title>Getty</title>
 <link>http://www.gettyimg.com/</link>
 <atom:link href="http://www.gettyimg.com/" rel="self" type="application/rss+xml" />

 
                <item>
                <title><![CDATA[【Requests】[REQ VID] - Bad Gyal - Festival Estereo Picnic 2024]]></title>
                <link><![CDATA[https://sharemania.us/threads/bad-gyal-festival-estereo-picnic-2024.240475/]]></link>
                <description><![CDATA[<article>
<blockquote class="messageText SelectQuoteContainer ugc baseHtml">
please
<div class="messageTextEndMarker">&nbsp;</div>
</blockquote>
</article>]]></description>
                <author><![CDATA[plantas]]></author>
                </item>

                
                <item>
                <title><![CDATA[【Requests】[REQ AUD] - Nobita - 'Ikaw Lang' (Qobuz Single Lossless FLAC)]]></title>
                <link><![CDATA[https://sharemania.us/threads/nobita-ikaw-lang-qobuz-single-lossless-flac.240473/]]></link>
                <description><![CDATA[<article>
<blockquote class="messageText SelectQuoteContainer ugc baseHtml">
<a href="https://www.qobuz.com/be-nl/album/ikaw-lang-nobita/k3ijrgtkhfn5b" target="_blank" class="externalLink" rel="nofollow">https://www.qobuz.com/be-nl/album/ikaw-lang-nobita/k3ijrgtkhfn5b</a><br>
<br>
thank u so much in advance!
<div class="messageTextEndMarker">&nbsp;</div>
</blockquote>
</article>]]></description>
                <author><![CDATA[Share Mania US]]></author>
                </item>

                
                <item>
                <title><![CDATA[【SD】PACK - Calvin Harris - My Way (2017) +3 (Promo Only) [VOB]]]></title>
                <link><![CDATA[https://sharemania.us/threads/calvin-harris-my-way-2017-3-promo-only-vob.240472/]]></link>
                <description><![CDATA[<article>
<blockquote class="messageText SelectQuoteContainer ugc baseHtml">
<div style="text-align: center"><img src="https://i.discogs.com/ETYGB_B9Qom60sUKP8TyqNdkli09se9oFwiNwez_9NI/rs:fit/g:sm/q:90/h:600/w:600/czM6Ly9kaXNjb2dz/LWRhdGFiYXNlLWlt/YWdlcy9SLTEzMDgz/ODkzLTE1NDc3NTg1/OTQtOTY3My5qcGVn.jpeg" class="bbCodeImage LbImage" alt="[​IMG]" data-url="https://i.discogs.com/ETYGB_B9Qom60sUKP8TyqNdkli09se9oFwiNwez_9NI/rs:fit/g:sm/q:90/h:600/w:600/czM6Ly9kaXNjb2dz/LWRhdGFiYXNlLWlt/YWdlcy9SLTEzMDgz/ODkzLTE1NDc3NTg1/OTQtOTY3My5qcGVn.jpeg" style=""> <br>
<img src="https://i.ibb.co/JzhZ7Tp/Calvin-Harris-My-Way-2017-Promo-Only-VOB-thumbs.jpg" class="bbCodeImage LbImage" alt="[​IMG]" data-url="https://i.ibb.co/JzhZ7Tp/Calvin-Harris-My-Way-2017-Promo-Only-VOB-thumbs.jpg" style=""> <br>
<img src="https://i.ibb.co/djPCFgx/Calvin-Harris-My-Way-Promo-Only-Intro-Edit-2016-Promo-Only-VOB-thumbs.jpg" class="bbCodeImage LbImage" alt="[​IMG]" data-url="https://i.ibb.co/djPCFgx/Calvin-Harris-My-Way-Promo-Only-Intro-Edit-2016-Promo-Only-VOB-thumbs.jpg" style=""> <br>
<img src="https://i.ibb.co/4dgx9ZL/Calvin-Harris-My-Way-Promo-Only-Lyric-Video-Intro-Edit-2016-Promo-Only-VOB-thumbs.jpg" class="bbCodeImage LbImage" alt="[​IMG]" data-url="https://i.ibb.co/4dgx9ZL/Calvin-Harris-My-Way-Promo-Only-Lyric-Video-Intro-Edit-2016-Promo-Only-VOB-thumbs.jpg" style=""> <br>
<div class="bbCodeBlock bbCodeVfcHH HiddenContent">
<div class="attribution type">Hidden Content:</div>
<blockquote>You must either reply or click 'Like' to see the hidden information contained here.</blockquote>
</div><br>
​</div>
<div class="messageTextEndMarker">&nbsp;</div>
</blockquote>
</article>]]></description>
                <author><![CDATA[Fan Made]]></author>
                </item>

                
                <item>
                <title><![CDATA[【Music Videos】Canal Magdalena - Espuma (VJ-RoGeRs Video Edit) (1080p) (Clean)]]></title>
                <link><![CDATA[https://sharemania.us/threads/canal-magdalena-espuma-vj-rogers-video-edit-1080p-clean.240474/]]></link>
                <description><![CDATA[<article>
<blockquote class="messageText SelectQuoteContainer ugc baseHtml">
<img src="https://i.ibb.co/Y3yNFbj/Canal-Magdalena-Espuma-mp4-thumbs-2024-03-21-22-56-23.jpg" class="bbCodeImage LbImage" alt="[​IMG]" data-url="https://i.ibb.co/Y3yNFbj/Canal-Magdalena-Espuma-mp4-thumbs-2024-03-21-22-56-23.jpg" style=""><br>
<br>
<div class="ToggleTriggerAnchor bbCodeSpoilerContainer">
<button type="button" class="button bbCodeSpoilerButton ToggleTrigger Tooltip JsOnly" data-target="> .SpoilerTarget"><span>Spoiler: <span class="SpoilerTitle">MediaInfo</span></span></button>
<div class="SpoilerTarget bbCodeSpoilerText">Canal Magdalena-Espuma.mp4<br>
Format : MPEG-4<br>
Format profile : Base Media / Version 2<br>
Codec ID : mp42 (mp42/mp41)<br>
File size : 291 MiB<br>
Duration : 3 min 54 s<br>
Overall bit rate mode : Variable<br>
Overall bit rate : 10.4 Mb/s<br>
Frame rate : 25.000 FPS<br>
Encoded date : 2018-04-19 06:33:51 UTC<br>
Tagged date : 2018-04-19 06:33:57 UTC<br>
TIM : 00:00:00:00<br>
TSC : 25<br>
TSZ : 1<br>
<br>
Video<br>
ID : 1<br>
Format : AVC<br>
Format/Info : Advanced Video Codec<br>
Format profile : Main@L4.1<br>
Format settings : CABAC / 3 Ref Frames<br>
Format settings, CABAC : Yes<br>
Format settings, Reference : 3 frames<br>
Codec ID : avc1<br>
Codec ID/Info : Advanced Video Coding<br>
Duration : 3 min 54 s<br>
Bit rate : 10.1 Mb/s<br>
Width : 1 920 pixels<br>
Height : 1 080 pixels<br>
Display aspect ratio : 16:9<br>
Frame rate mode : Constant<br>
Frame rate : 25.000 FPS<br>
Standard : PAL<br>
Color space : YUV<br>
Chroma subsampling : 4:2:0<br>
Bit depth : 8 bits<br>
Scan type : Progressive<br>
Bits/(Pixel*Frame) : 0.194<br>
Stream size : 282 MiB (97%)<br>
Language : English<br>
Encoded date : 2018-04-19 06:33:51 UTC<br>
Tagged date : 2018-04-19 06:33:51 UTC<br>
Color range : Limited<br>
Color primaries : BT.709<br>
Transfer characteristics : BT.709<br>
Matrix coefficients : BT.709<br>
Codec configuration box : avcC<br>
<br>
Audio<br>
ID : 2<br>
Format : AAC LC<br>
Format/Info : Advanced Audio Codec Low Complexity<br>
Codec ID : mp4a-40-2<br>
Duration : 3 min 54 s<br>
Source duration : 3 min 54 s<br>
Bit rate mode : Variable<br>
Bit rate : 317 kb/s<br>
Maximum bit rate : 406 kb/s<br>
Channel(s) : 2 channels<br>
Channel layout : L R<br>
Sampling rate : 48.0 kHz<br>
Frame rate : 46.875 FPS (1024 SPF)<br>
Compression mode : Lossy<br>
Stream size : 8.88 MiB (3%)<br>
Source stream size : 8.88 MiB (3%)<br>
Language : English<br>
Encoded date : 2018-04-19 06:33:51 UTC<br>
Tagged date : 2018-04-19 06:33:51 UTC</div>
</div><br>
<div class="bbCodeBlock bbCodeVfcHH HiddenContent">
<div class="attribution type">Hidden Content:</div>
<blockquote>You must reply before you can see the hidden data contained here.</blockquote>
</div>
<div class="messageTextEndMarker">&nbsp;</div>
</blockquote>
</article>]]></description>
                <author><![CDATA[DJ-RoGeRs-BS]]></author>
                </item>

                </channel></rss>